<svg xmlns="http://www.w3.org/2000/svg" width="1080" height="620" viewBox="0 0 1080 620" role="img" aria-labelledby="title desc">
<title id="title">Execution accuracy by difficulty</title>
<desc id="desc">Grouped bar chart of percentages by model and category.</desc>
<rect width="100%" height="100%" fill="white"/>
<text x="90" y="38" font-family="Arial, sans-serif" font-size="24" font-weight="700">Execution accuracy by difficulty</text>
<text x="90" y="62" font-family="Arial, sans-serif" font-size="13" fill="#475569">Items whose gold query fails to execute or returns no rows are excluded; whiskers are 95% Wilson confidence intervals.</text>
<line x1="90" y1="505.0" x2="1050" y2="505.0" stroke="#cbd5e1" stroke-width="1"/>
<text x="78" y="510.0" text-anchor="end" font-family="Arial, sans-serif" font-size="12">0%</text>
<line x1="90" y1="421.6" x2="1050" y2="421.6" stroke="#cbd5e1" stroke-width="1"/>
<text x="78" y="426.6" text-anchor="end" font-family="Arial, sans-serif" font-size="12">20%</text>
<line x1="90" y1="338.2" x2="1050" y2="338.2" stroke="#cbd5e1" stroke-width="1"/>
<text x="78" y="343.2" text-anchor="end" font-family="Arial, sans-serif" font-size="12">40%</text>
<line x1="90" y1="254.8" x2="1050" y2="254.8" stroke="#cbd5e1" stroke-width="1"/>
<text x="78" y="259.8" text-anchor="end" font-family="Arial, sans-serif" font-size="12">60%</text>
<line x1="90" y1="171.4" x2="1050" y2="171.4" stroke="#cbd5e1" stroke-width="1"/>
<text x="78" y="176.4" text-anchor="end" font-family="Arial, sans-serif" font-size="12">80%</text>
<line x1="90" y1="88.0" x2="1050" y2="88.0" stroke="#cbd5e1" stroke-width="1"/>
<text x="78" y="93.0" text-anchor="end" font-family="Arial, sans-serif" font-size="12">100%</text>
<line x1="90" y1="88" x2="90" y2="505" stroke="#334155"/>
<line x1="90" y1="505" x2="1050" y2="505" stroke="#334155"/>
<rect x="194.0" y="366.0" width="25.0" height="139.0" fill="#2563eb" opacity="1"/>
<line x1="206.5" y1="417.4" x2="206.5" y2="303.0" stroke="#111827"/>
<line x1="202.5" y1="417.4" x2="210.5" y2="417.4" stroke="#111827"/>
<line x1="202.5" y1="303.0" x2="210.5" y2="303.0" stroke="#111827"/>
<text x="206.5" y="361.0" text-anchor="middle" font-family="Arial, sans-serif" font-size="10">33%</text>
<rect x="222.0" y="306.4" width="25.0" height="198.6" fill="#2563eb" opacity="0.48"/>
<text x="234.5" y="301.4" text-anchor="middle" font-family="Arial, sans-serif" font-size="10">48%</text>
<rect x="250.0" y="366.0" width="25.0" height="139.0" fill="#d97706" opacity="1"/>
<line x1="262.5" y1="417.4" x2="262.5" y2="303.0" stroke="#111827"/>
<line x1="258.5" y1="417.4" x2="266.5" y2="417.4" stroke="#111827"/>
<line x1="258.5" y1="303.0" x2="266.5" y2="303.0" stroke="#111827"/>
<text x="262.5" y="361.0" text-anchor="middle" font-family="Arial, sans-serif" font-size="10">33%</text>
<rect x="278.0" y="356.1" width="25.0" height="148.9" fill="#d97706" opacity="0.48"/>
<text x="290.5" y="351.1" text-anchor="middle" font-family="Arial, sans-serif" font-size="10">36%</text>
<text x="250.0" y="529" text-anchor="middle" font-family="Arial, sans-serif" font-size="12">easy</text>
<rect x="514.0" y="403.6" width="25.0" height="101.4" fill="#2563eb" opacity="1"/>
<line x1="526.5" y1="449.3" x2="526.5" y2="337.7" stroke="#111827"/>
<line x1="522.5" y1="449.3" x2="530.5" y2="449.3" stroke="#111827"/>
<line x1="522.5" y1="337.7" x2="530.5" y2="337.7" stroke="#111827"/>
<text x="526.5" y="398.6" text-anchor="middle" font-family="Arial, sans-serif" font-size="10">24%</text>
<rect x="542.0" y="369.8" width="25.0" height="135.2" fill="#2563eb" opacity="0.48"/>
<text x="554.5" y="364.8" text-anchor="middle" font-family="Arial, sans-serif" font-size="10">32%</text>
<rect x="570.0" y="392.3" width="25.0" height="112.7" fill="#d97706" opacity="1"/>
<line x1="582.5" y1="440.8" x2="582.5" y2="325.8" stroke="#111827"/>
<line x1="578.5" y1="440.8" x2="586.5" y2="440.8" stroke="#111827"/>
<line x1="578.5" y1="325.8" x2="586.5" y2="325.8" stroke="#111827"/>
<text x="582.5" y="387.3" text-anchor="middle" font-family="Arial, sans-serif" font-size="10">27%</text>
<rect x="598.0" y="369.8" width="25.0" height="135.2" fill="#d97706" opacity="0.48"/>
<text x="610.5" y="364.8" text-anchor="middle" font-family="Arial, sans-serif" font-size="10">32%</text>
<text x="570.0" y="529" text-anchor="middle" font-family="Arial, sans-serif" font-size="12">medium</text>
<rect x="834.0" y="436.8" width="25.0" height="68.2" fill="#2563eb" opacity="1"/>
<line x1="846.5" y1="457.1" x2="846.5" y2="410.1" stroke="#111827"/>
<line x1="842.5" y1="457.1" x2="850.5" y2="457.1" stroke="#111827"/>
<line x1="842.5" y1="410.1" x2="850.5" y2="410.1" stroke="#111827"/>
<text x="846.5" y="431.8" text-anchor="middle" font-family="Arial, sans-serif" font-size="10">16%</text>
<rect x="862.0" y="431.7" width="25.0" height="73.3" fill="#2563eb" opacity="0.48"/>
<text x="874.5" y="426.7" text-anchor="middle" font-family="Arial, sans-serif" font-size="10">18%</text>
<rect x="890.0" y="474.7" width="25.0" height="30.3" fill="#d97706" opacity="1"/>
<line x1="902.5" y1="487.4" x2="902.5" y2="453.8" stroke="#111827"/>
<line x1="898.5" y1="487.4" x2="906.5" y2="487.4" stroke="#111827"/>
<line x1="898.5" y1="453.8" x2="906.5" y2="453.8" stroke="#111827"/>
<text x="902.5" y="469.7" text-anchor="middle" font-family="Arial, sans-serif" font-size="10">7%</text>
<rect x="918.0" y="462.0" width="25.0" height="43.0" fill="#d97706" opacity="0.48"/>
<text x="930.5" y="457.0" text-anchor="middle" font-family="Arial, sans-serif" font-size="10">10%</text>
<text x="890.0" y="529" text-anchor="middle" font-family="Arial, sans-serif" font-size="12">hard</text>
<rect x="90" y="566" width="14" height="14" fill="#2563eb" opacity="1"/>
<text x="110" y="577" font-family="Arial, sans-serif" font-size="12">GPT-4o-mini — strict</text>
<rect x="325" y="566" width="14" height="14" fill="#2563eb" opacity="0.48"/>
<text x="345" y="577" font-family="Arial, sans-serif" font-size="12">GPT-4o-mini — lenient</text>
<rect x="560" y="566" width="14" height="14" fill="#d97706" opacity="1"/>
<text x="580" y="577" font-family="Arial, sans-serif" font-size="12">Qwen2.5-Coder-7B-Instruct — strict</text>
<rect x="795" y="566" width="14" height="14" fill="#d97706" opacity="0.48"/>
<text x="815" y="577" font-family="Arial, sans-serif" font-size="12">Qwen2.5-Coder-7B-Instruct — lenient</text>
</svg>